<svg width="59" height="94" viewBox="0 0 59 94" fill="none" xmlns="http://www.w3.org/2000/svg">
<path fill-rule="evenodd" clip-rule="evenodd" d="M6.46663 23.4984C6.46704 18.9758 7.75571 14.5495 10.178 10.7504C12.6003 6.9514 16.0533 3.94105 20.1227 2.0806C24.1922 0.220146 28.7051 -0.411368 33.1201 0.261831C37.535 0.935031 41.6644 2.88435 45.0128 5.87587C48.3612 8.8674 50.7863 12.7741 51.9971 17.1271C53.208 21.4801 53.1531 26.0946 51.8391 30.4168C50.5252 34.7391 48.0079 38.5855 44.5894 41.4944C41.1709 44.4034 36.9963 46.2515 32.5666 46.8168V79.3122C32.5666 80.0912 32.2611 80.8384 31.7172 81.3893C31.1734 81.9402 30.4358 82.2497 29.6666 82.2497C28.8975 82.2497 28.1599 81.9402 27.616 81.3893C27.0722 80.8384 26.7666 80.0912 26.7666 79.3122V46.8227C21.1578 46.1069 16 43.3413 12.2621 39.0454C8.52413 34.7495 6.46327 29.2189 6.46663 23.4925V23.4984ZM20.926 73.8718C21.0518 74.6399 20.8714 75.4272 20.4244 76.0607C19.9774 76.6941 19.3004 77.1219 18.5422 77.25C14.4126 77.9433 11.1182 78.9831 8.94323 80.1464C8.14308 80.5335 7.41662 81.0606 6.79722 81.7033C6.65677 81.8582 6.5448 82.0373 6.46663 82.2321V82.2497L6.47822 82.2967L6.57103 82.4906C6.7984 82.8319 7.08304 83.1301 7.41203 83.3719C8.36903 84.1357 9.93503 84.9582 12.1274 85.6926C16.4832 87.1613 22.6834 88.1249 29.6666 88.1249C36.6498 88.1249 42.85 87.1672 47.2058 85.6926C49.3982 84.9523 50.9642 84.1357 51.9212 83.3719C52.2523 83.1307 52.5389 82.8324 52.768 82.4906L52.855 82.2967L52.8666 82.2497V82.2262C52.7884 82.0314 52.6765 81.8523 52.536 81.6975C51.9162 81.0568 51.1897 80.5318 50.39 80.1464C48.2092 78.9831 44.9206 77.9433 40.791 77.25C40.4063 77.1972 40.0361 77.0667 39.7021 76.8662C39.3681 76.6658 39.0773 76.3995 38.8468 76.0831C38.6164 75.7666 38.451 75.4066 38.3604 75.0242C38.2699 74.6418 38.256 74.2449 38.3197 73.857C38.3834 73.4692 38.5233 73.0982 38.7312 72.7661C38.9391 72.434 39.2106 72.1475 39.5298 71.9237C39.849 71.6999 40.2093 71.5433 40.5893 71.4631C40.9693 71.383 41.3614 71.3809 41.7422 71.4571C46.2082 72.2032 50.1638 73.3841 53.0928 74.9469C55.7666 76.3746 58.6666 78.7246 58.6666 82.2497C58.6666 84.7525 57.1586 86.6678 55.5114 87.9897C53.8294 89.3293 51.5674 90.4162 49.0386 91.2681C43.9462 92.9895 37.0964 94 29.6666 94C22.2368 94 15.387 92.9895 10.2946 91.2681C7.76582 90.4162 5.50383 89.3293 3.82183 87.9897C2.17463 86.6678 0.666626 84.7525 0.666626 82.2497C0.666626 78.7305 3.56663 76.3746 6.24043 74.9469C9.16943 73.3841 13.125 72.2032 17.591 71.4571C18.3493 71.3297 19.1266 71.5125 19.7519 71.9652C20.3773 72.418 20.7996 73.1038 20.926 73.8718Z" fill="#1350E5"/>
</svg>
