<svg width="314" height="311" viewBox="0 0 314 311" fill="none" xmlns="http://www.w3.org/2000/svg">
<g filter="url(#filter0_f_117_2488)">
<ellipse cx="157.167" cy="155.5" rx="56.5" ry="55.5" fill="#1350E5" fill-opacity="0.1"/>
</g>
<ellipse cx="138.667" cy="170.5" rx="87" ry="29.5" fill="url(#paint0_linear_117_2488)" fill-opacity="0.05"/>
<path fill-rule="evenodd" clip-rule="evenodd" d="M115.467 107.498C115.467 102.976 116.756 98.5495 119.178 94.7504C121.6 90.9514 125.053 87.941 129.123 86.0806C133.192 84.2201 137.705 83.5886 142.12 84.2618C146.535 84.935 150.664 86.8843 154.013 89.8759C157.361 92.8674 159.786 96.7741 160.997 101.127C162.208 105.48 162.153 110.095 160.839 114.417C159.525 118.739 157.008 122.585 153.589 125.494C150.171 128.403 145.996 130.251 141.567 130.817V163.312C141.567 164.091 141.261 164.838 140.717 165.389C140.173 165.94 139.436 166.25 138.667 166.25C137.897 166.25 137.16 165.94 136.616 165.389C136.072 164.838 135.767 164.091 135.767 163.312V130.823C130.158 130.107 125 127.341 121.262 123.045C117.524 118.749 115.463 113.219 115.467 107.492V107.498ZM129.926 157.872C130.052 158.64 129.871 159.427 129.424 160.061C128.977 160.694 128.3 161.122 127.542 161.25C123.413 161.943 120.118 162.983 117.943 164.146C117.143 164.534 116.417 165.061 115.797 165.703C115.657 165.858 115.545 166.037 115.467 166.232V166.25L115.478 166.297L115.571 166.491C115.798 166.832 116.083 167.13 116.412 167.372C117.369 168.136 118.935 168.958 121.127 169.693C125.483 171.161 131.683 172.125 138.667 172.125C145.65 172.125 151.85 171.167 156.206 169.693C158.398 168.952 159.964 168.136 160.921 167.372C161.252 167.131 161.539 166.832 161.768 166.491L161.855 166.297L161.867 166.25V166.226C161.788 166.031 161.676 165.852 161.536 165.697C160.916 165.057 160.19 164.532 159.39 164.146C157.209 162.983 153.921 161.943 149.791 161.25C149.406 161.197 149.036 161.067 148.702 160.866C148.368 160.666 148.077 160.399 147.847 160.083C147.616 159.767 147.451 159.407 147.36 159.024C147.27 158.642 147.256 158.245 147.32 157.857C147.383 157.469 147.523 157.098 147.731 156.766C147.939 156.434 148.211 156.148 148.53 155.924C148.849 155.7 149.209 155.543 149.589 155.463C149.969 155.383 150.361 155.381 150.742 155.457C155.208 156.203 159.164 157.384 162.093 158.947C164.767 160.375 167.667 162.725 167.667 166.25C167.667 168.753 166.159 170.668 164.511 171.99C162.829 173.329 160.567 174.416 158.039 175.268C152.946 176.989 146.096 178 138.667 178C131.237 178 124.387 176.989 119.295 175.268C116.766 174.416 114.504 173.329 112.822 171.99C111.175 170.668 109.667 168.753 109.667 166.25C109.667 162.731 112.567 160.375 115.24 158.947C118.169 157.384 122.125 156.203 126.591 155.457C127.349 155.33 128.127 155.512 128.752 155.965C129.377 156.418 129.8 157.104 129.926 157.872Z" fill="#1350E5"/>
<defs>
<filter id="filter0_f_117_2488" x="0.666626" y="0" width="313" height="311" filterUnits="userSpaceOnUse" color-interpolation-filters="sRGB">
<feFlood flood-opacity="0" result="BackgroundImageFix"/>
<feBlend mode="normal" in="SourceGraphic" in2="BackgroundImageFix" result="shape"/>
<feGaussianBlur stdDeviation="50" result="effect1_foregroundBlur_117_2488"/>
</filter>
<linearGradient id="paint0_linear_117_2488" x1="138.667" y1="141" x2="138.667" y2="200" gradientUnits="userSpaceOnUse">
<stop stop-color="white"/>
<stop offset="1" stop-color="white" stop-opacity="0.5"/>
</linearGradient>
</defs>
</svg>
