<svg width="149" height="59" viewBox="0 0 149 59" fill="none" xmlns="http://www.w3.org/2000/svg">
<path d="M19.2323 30.3795C24.7056 24.8323 30.1556 19.3084 35.6709 13.7192C35.4796 13.6656 35.3767 13.6106 35.2753 13.6106C31.0729 13.6135 26.872 13.6135 22.6696 13.6294C15.2778 13.6555 8.63655 19.1273 7.17732 26.3872C6.22381 31.1316 6.91213 35.56 9.88422 39.4725C12.0999 42.391 15.0314 44.2009 18.6831 44.8139C22.9072 45.524 26.7531 44.6023 30.1121 42.0012C32.9466 39.8073 34.6797 36.8671 35.1014 33.2603C35.255 31.9474 35.2753 30.6142 35.268 29.2898C35.2637 28.5507 35.5317 28.0319 36.1128 27.645C36.9562 27.0842 37.7894 26.5031 38.6647 25.9989C39.9587 25.2526 41.5353 26.0554 41.5701 27.5392C41.6382 30.4505 41.7686 33.369 40.9789 36.2324C39.8413 40.3637 37.5793 43.7691 34.3826 46.5702C31.483 49.1105 28.1008 50.7103 24.2911 51.2479C18.8903 52.0087 13.8924 50.8871 9.44515 47.6454C5.06454 44.4516 2.22576 40.1768 1.24907 34.8731C-0.0319292 27.9146 1.09547 21.3748 5.58041 15.6755C8.84957 11.5224 13.1172 8.8952 18.2832 7.81853C19.8989 7.48089 21.5799 7.33598 23.2318 7.32004C29.0036 7.26062 34.7753 7.2954 40.5471 7.2954C40.8572 7.2954 41.1658 7.2954 41.5339 7.2954C41.5556 7.58667 41.589 7.81997 41.589 8.05183C41.5947 10.6834 41.5774 13.3164 41.615 15.9479C41.6237 16.5624 41.4223 16.9913 41.0035 17.4057C37.7445 20.6358 34.4956 23.8745 31.2482 27.1161C27.7965 30.5621 24.352 34.0152 20.9046 37.467C20.6829 37.6887 20.467 37.9177 20.238 38.1321C19.5989 38.7292 18.9483 38.748 18.3281 38.1292C16.2588 36.0672 14.2054 33.9892 12.1434 31.9184C11.7014 31.4735 11.2319 31.0548 10.8058 30.5939C10.0538 29.7795 10.1074 28.8217 10.9754 28.1435C11.8115 27.4914 12.6839 26.8828 13.5606 26.2858C14.1735 25.8684 14.788 25.8931 15.3299 26.4408C16.5167 27.6436 17.6977 28.8507 18.8816 30.0549C18.9628 30.1375 19.0512 30.2128 19.2309 30.3795H19.2323Z" fill="white"/>
<path d="M49.375 20.2445C50.5183 20.2445 51.6254 20.2372 52.7325 20.2459C54.6874 20.2633 56.6422 20.2677 58.5956 20.3198C60.7982 20.3793 62.7806 21.7733 63.4124 23.647C64.1775 25.9133 63.3008 28.1565 61.1953 29.3202C61.0156 29.4202 60.8446 29.5346 60.5779 29.6998C60.8489 29.8592 61.0185 29.9824 61.2054 30.065C64.1297 31.3402 64.6079 34.9035 63.0008 37.2337C62.027 38.6451 60.6287 39.4899 58.9506 39.5798C55.9191 39.7421 52.8789 39.7334 49.8431 39.7986C49.4619 39.8073 49.2852 39.6812 49.2852 39.2552C49.2982 33.0269 49.2953 26.8002 49.2982 20.572C49.2982 20.5039 49.3272 20.4372 49.3707 20.2445H49.375ZM53.2977 33.8703H53.2934C53.2934 34.4963 53.3049 35.1223 53.289 35.7483C53.2789 36.1193 53.3586 36.3338 53.7991 36.3265C54.954 36.3062 56.1118 36.3584 57.2668 36.3106C58.6347 36.2541 59.6621 35.3267 59.7607 34.15C59.8809 32.7284 59.2115 31.7068 57.7174 31.4866C56.3973 31.2909 55.0352 31.3692 53.6904 31.3764C53.5585 31.3764 53.331 31.7213 53.3165 31.9198C53.2687 32.5661 53.2991 33.2182 53.2991 33.8689L53.2977 33.8703ZM53.3151 28.0348C54.8569 28.0348 56.3017 28.1029 57.7363 28.0131C58.8202 27.945 59.5607 27.0335 59.61 25.9742C59.6665 24.7801 59.239 24.0527 57.9971 23.8948C56.5538 23.7107 55.0743 23.7977 53.6107 23.7977C53.5122 23.7977 53.3296 24.0556 53.3281 24.1962C53.3064 25.4424 53.3151 26.6901 53.3151 28.0348Z" fill="white"/>
<path d="M90.8176 33.7632C91.5422 36.7918 95.0156 37.2453 96.8299 36.2092C98.2399 35.4035 98.3355 33.5806 96.969 32.7068C96.3734 32.3257 95.6547 32.1329 94.9809 31.8837C93.3825 31.2925 91.719 30.8418 90.1931 30.1042C88.2571 29.1695 87.3586 27.4697 87.4876 25.3106C87.6137 23.2326 88.5222 21.5618 90.4771 20.7141C93.4781 19.4128 96.501 19.4447 99.3441 21.1604C101.053 22.1921 101.654 23.905 101.729 25.8685C100.508 25.9902 99.3412 26.1206 98.1718 26.1974C98.0587 26.2047 97.8617 25.8917 97.8109 25.699C97.4965 24.5078 96.7212 23.7311 95.559 23.4905C94.3722 23.2442 93.1434 23.1819 92.1551 24.147C91.3987 24.886 91.3204 25.8236 92.1609 26.4684C92.884 27.0234 93.7796 27.3843 94.6432 27.719C96.0503 28.2653 97.5385 28.6203 98.9123 29.2362C101.881 30.5665 102.531 33.2719 101.835 35.9397C101.225 38.2843 99.4426 39.4581 97.2342 39.9436C95.2692 40.3754 93.2593 40.3725 91.3147 39.6929C88.9323 38.8596 87.4296 37.2526 87.0558 34.7065C87.0311 34.537 87.234 34.1834 87.3659 34.1646C88.5034 34.0008 89.6496 33.8936 90.8133 33.7675L90.8176 33.7632Z" fill="white"/>
<path d="M81.739 26.722V20.3329H85.6284C85.6284 21.3502 85.6284 22.3559 85.6284 23.3615C85.6284 28.6 85.6168 33.8385 85.6429 39.077C85.6458 39.6769 85.4458 39.8319 84.9024 39.8088C84.1793 39.7798 83.4518 39.7711 82.7302 39.8131C82.0926 39.8508 81.7665 39.6595 81.8651 38.9697C81.8912 38.7915 81.8491 38.6046 81.8332 38.3365C81.668 38.4379 81.5506 38.4756 81.484 38.5567C79.6668 40.755 75.6832 40.5608 73.5922 39.0103C71.6866 37.5974 70.8389 35.6788 70.7259 33.3588C70.6273 31.3359 70.936 29.4303 72.1112 27.7204C74.2428 24.6208 78.7075 24.018 81.4101 26.5771C81.4564 26.622 81.5332 26.6336 81.7376 26.722H81.739ZM81.8709 32.6473C81.6999 31.9315 81.6086 31.1823 81.3391 30.5041C80.758 29.042 79.5668 28.3812 77.8859 28.4595C76.5831 28.5203 75.305 29.4579 74.9804 30.7809C74.7718 31.6301 74.7007 32.5459 74.7558 33.4197C74.9312 36.1817 77.8525 37.6148 80.1682 36.1049C81.3999 35.3021 81.7984 34.0863 81.8723 32.6459L81.8709 32.6473Z" fill="white"/>
<path d="M122.533 38.5553C122.447 39.3919 122.001 39.8087 121.194 39.8058C120.614 39.8044 120.031 39.7609 119.456 39.8058C118.837 39.8537 118.688 39.6088 118.691 39.019C118.711 33.8501 118.704 28.6826 118.704 23.5137C118.704 22.6442 118.721 21.7748 118.695 20.9053C118.681 20.4474 118.817 20.2503 119.305 20.2633C120.34 20.2909 121.375 20.272 122.496 20.272V26.6814C122.685 26.5973 122.782 26.5828 122.834 26.5263C125.126 24.0629 129.774 24.6947 131.823 27.1857C133.666 29.4274 134.033 32.0141 133.395 34.7514C132.525 38.4814 129.714 40.4724 125.887 40.1246C124.644 40.0116 123.543 39.4725 122.533 38.5538V38.5553ZM126.232 28.4551C124.406 28.4275 123.208 29.2825 122.727 30.9635C122.421 32.0329 122.402 33.1139 122.722 34.1775C123.156 35.6179 124.199 36.4121 125.636 36.6656C127.123 36.9279 128.484 36.2758 129.214 35.0151C129.894 33.8428 129.932 32.5691 129.635 31.2996C129.195 29.4231 128.022 28.4826 126.232 28.4565V28.4551Z" fill="white"/>
<path d="M103.558 25.7684C104.768 25.7684 105.967 25.7496 107.163 25.7974C107.281 25.8017 107.472 26.2162 107.475 26.4422C107.498 28.9028 107.503 31.3648 107.484 33.8254C107.475 34.8832 107.713 35.7889 108.724 36.3178C109.83 36.8975 110.937 36.8163 111.95 36.1425C112.703 35.6411 112.96 34.8223 112.96 33.937C112.963 31.4764 112.977 29.0144 112.938 26.5538C112.928 25.9017 113.128 25.7278 113.761 25.7612C114.789 25.8162 115.822 25.7757 116.89 25.7757C116.907 26.0756 116.929 26.2857 116.929 26.4973C116.929 30.6721 116.919 34.8455 116.94 39.0204C116.943 39.6087 116.791 39.8522 116.177 39.8116C115.504 39.7667 114.823 39.7551 114.151 39.8058C113.489 39.8565 113.2 39.6391 113.308 38.9624C113.329 38.8291 113.295 38.6871 113.282 38.461C113.108 38.5697 112.98 38.6204 112.892 38.7103C110.098 41.5215 104.965 40.3086 103.765 36.5395C103.615 36.0642 103.519 35.5483 103.516 35.0499C103.491 32.0821 103.502 29.1144 103.503 26.1466C103.503 26.0553 103.528 25.964 103.557 25.767L103.558 25.7684Z" fill="white"/>
<path d="M134.653 35.3789C135.703 35.2977 136.702 35.2006 137.703 35.1644C137.847 35.1586 138.07 35.4194 138.139 35.6006C138.752 37.2018 140.791 37.951 142.281 37.083C142.817 36.77 143.076 36.2933 143.059 35.6354C143.043 35.0354 142.679 34.7485 142.217 34.5862C140.993 34.1558 139.748 33.7849 138.52 33.3661C138.067 33.211 137.626 33.0067 137.199 32.7893C134.182 31.2634 134.482 27.3683 137.031 25.9032C139.458 24.5078 141.984 24.5686 144.401 25.9279C145.821 26.7263 146.483 28.0711 146.492 29.7825C145.405 29.8636 144.363 29.9419 143.339 30.0187C142.73 28.1493 141.846 27.5712 140.061 27.8233C139.3 27.9305 138.789 28.3754 138.696 29.0101C138.6 29.6636 138.926 30.2607 139.657 30.5317C140.603 30.8838 141.591 31.12 142.54 31.4649C143.349 31.759 144.152 32.0865 144.914 32.4836C146.979 33.5588 146.845 36.883 145.656 38.2162C144.559 39.4479 143.2 40.0942 141.597 40.1261C140.504 40.1478 139.358 40.1102 138.322 39.8044C136.022 39.1248 135.106 37.9423 134.65 35.3818L134.653 35.3789Z" fill="white"/>
<path d="M65.447 25.8017H69.0828C69.0987 26.0568 69.1262 26.2872 69.1262 26.519C69.1291 30.6707 69.1175 34.8238 69.1436 38.9754C69.148 39.5985 68.9915 39.8478 68.3394 39.8087C67.5221 39.7594 66.6961 39.8246 65.8788 39.771C65.689 39.7579 65.3586 39.4667 65.3586 39.3015C65.3383 34.86 65.3513 30.42 65.3615 25.9785C65.3615 25.9365 65.4006 25.8945 65.447 25.8017Z" fill="white"/>
<path d="M67.3089 23.947C66.1482 23.9339 65.2758 23.1167 65.2932 22.0588C65.3106 20.93 66.3235 19.933 67.4263 19.9547C68.4754 19.9765 69.4913 20.9691 69.4956 21.9791C69.4999 23.1601 68.6102 23.9615 67.3104 23.9455L67.3089 23.947Z" fill="white"/>
</svg>
