<svg width="24" height="25" viewBox="0 0 24 25" fill="none" xmlns="http://www.w3.org/2000/svg">
<path d="M19 1.59717H5C3.67441 1.59876 2.40356 2.12605 1.46622 3.06339C0.528882 4.00073 0.00158786 5.27157 0 6.59717L0 18.5972C0.00158786 19.9228 0.528882 21.1936 1.46622 22.1309C2.40356 23.0683 3.67441 23.5956 5 23.5972H19C20.3256 23.5956 21.5964 23.0683 22.5338 22.1309C23.4711 21.1936 23.9984 19.9228 24 18.5972V6.59717C23.9984 5.27157 23.4711 4.00073 22.5338 3.06339C21.5964 2.12605 20.3256 1.59876 19 1.59717ZM5 3.59717H19C19.5988 3.59835 20.1835 3.77868 20.679 4.11497C21.1744 4.45126 21.5579 4.92811 21.78 5.48417L14.122 13.1432C13.5584 13.7045 12.7954 14.0196 12 14.0196C11.2046 14.0196 10.4416 13.7045 9.878 13.1432L2.22 5.48417C2.44215 4.92811 2.82561 4.45126 3.32105 4.11497C3.81648 3.77868 4.40121 3.59835 5 3.59717ZM19 21.5972H5C4.20435 21.5972 3.44129 21.2811 2.87868 20.7185C2.31607 20.1559 2 19.3928 2 18.5972V8.09717L8.464 14.5572C9.40263 15.4934 10.6743 16.0192 12 16.0192C13.3257 16.0192 14.5974 15.4934 15.536 14.5572L22 8.09717V18.5972C22 19.3928 21.6839 20.1559 21.1213 20.7185C20.5587 21.2811 19.7956 21.5972 19 21.5972Z" fill="white"/>
</svg>
