<svg width="31" height="32" viewBox="0 0 31 32" fill="none" xmlns="http://www.w3.org/2000/svg">
<path d="M6.81665 18.9556L5.75087 22.9388L1.85548 23.0212C0.691331 20.8596 0.0310059 18.3864 0.0310059 15.7582C0.0310059 13.2168 0.648394 10.8201 1.74276 8.70984H1.74359L5.21159 9.34635L6.73078 12.7974C6.41281 13.7254 6.23951 14.7216 6.23951 15.7582C6.23963 16.8832 6.44319 17.9612 6.81665 18.9556Z" fill="#FBBB00"/>
<path d="M30.3818 12.8945C30.5576 13.8216 30.6493 14.7791 30.6493 15.7577C30.6493 16.8549 30.5341 17.9252 30.3145 18.9576C29.5693 22.4709 27.622 25.5386 24.9244 27.7096L24.9236 27.7087L20.5555 27.4856L19.9372 23.622C21.7272 22.5711 23.1261 20.9265 23.863 18.9576H15.6768V12.8945H23.9824H30.3818Z" fill="#1350E5"/>
<path d="M24.9234 27.7088L24.9243 27.7096C22.3007 29.8207 18.968 31.0839 15.3401 31.0839C9.51002 31.0839 4.44121 27.8216 1.85547 23.0208L6.81664 18.9552C8.10948 22.4095 11.438 24.8684 15.3401 24.8684C17.0173 24.8684 18.5887 24.4145 19.937 23.6221L24.9234 27.7088Z" fill="#28B446"/>
<path d="M25.112 3.95989L20.1526 8.02468C18.7571 7.15145 17.1075 6.647 15.3403 6.647C11.3498 6.647 7.95908 9.21874 6.731 12.7969L1.74376 8.70933H1.74292C4.29081 3.79148 9.42355 0.431519 15.3403 0.431519C19.0548 0.431519 22.4607 1.75615 25.112 3.95989Z" fill="#F14336"/>
</svg>
