<svg width="1397" height="237" viewBox="0 0 1397 237" fill="none" xmlns="http://www.w3.org/2000/svg">
<g filter="url(#filter0_f_144_2007)">
<path d="M160.977 330.587C153.426 306.047 122.975 300.834 120.447 275.557C118.651 257.593 122.106 245.889 133.664 230.784C164.058 213.299 181.43 203.907 211.493 186.01C242.595 167.495 255.832 151.179 290.203 137.484C349.15 113.999 390.795 120.425 455.847 121.976C542.873 124.052 643.651 138.652 674 137.484C704.349 136.317 822 137.484 822 137.484C822 137.484 963.281 155.16 995 161.997C1026.72 168.834 1134.99 186.01 1148.5 186.01C1162.01 186.01 1241.77 220.028 1241.77 220.028C1241.77 220.028 1260.38 214.192 1257.63 220.028L1269.97 237.537C1284.13 265.614 1275.31 288.483 1257.63 315.078C1231.76 354.016 1138.39 368.106 1138.39 368.106L944.556 385.616C944.556 385.616 685.557 415.508 522.222 395.621C460.986 388.165 428.843 371.975 367.151 368.106C286.454 363.046 185.653 451.246 160.977 385.616C153.282 365.149 167.374 351.375 160.977 330.587Z" fill="#1350E5" fill-opacity="0.3"/>
</g>
<defs>
<filter id="filter0_f_144_2007" x="0" y="0" width="1397" height="530" filterUnits="userSpaceOnUse" color-interpolation-filters="sRGB">
<feFlood flood-opacity="0" result="BackgroundImageFix"/>
<feBlend mode="normal" in="SourceGraphic" in2="BackgroundImageFix" result="shape"/>
<feGaussianBlur stdDeviation="60" result="effect1_foregroundBlur_144_2007"/>
</filter>
</defs>
</svg>
