<svg width="124" height="124" viewBox="0 0 124 124" fill="none" xmlns="http://www.w3.org/2000/svg">
<path d="M111.962 35.9099C108.655 24.6982 99.3035 15.3465 88.0919 12.0399C79.5669 9.55987 73.6769 9.76654 69.5952 12.8149C64.6869 16.4832 64.1185 23.0965 64.1185 27.7982V40.6632C64.1185 53.3732 69.9052 59.8315 81.2719 59.8315H96.1002C100.75 59.8315 107.415 59.2632 111.084 54.3549C114.235 50.3249 114.494 44.4349 111.962 35.9099Z" fill="#9A9EA6" fill-opacity="0.6"/>
<path d="M97.7018 69.0279C96.3584 67.4779 94.3951 66.5996 92.3801 66.5996H73.8834C64.7901 66.5996 57.4017 59.2113 57.4017 50.1179V31.6213C57.4017 29.6063 56.5234 27.6429 54.9734 26.2996C53.4751 24.9563 51.4084 24.3363 49.4451 24.5946C37.3034 26.1446 26.1434 32.8096 18.8584 42.8329C11.5218 52.9079 8.83509 65.2046 11.1601 77.5013C14.5184 95.2746 28.7268 109.483 46.5518 112.841C49.3934 113.41 52.2351 113.668 55.0767 113.668C64.4284 113.668 73.4701 110.775 81.1684 105.143C91.1917 97.8579 97.8568 86.6979 99.4068 74.5563C99.6651 72.5413 99.0451 70.5263 97.7018 69.0279Z" fill="#1350E5"/>
</svg>
