<svg width="118" height="118" viewBox="0 0 118 118" fill="none" xmlns="http://www.w3.org/2000/svg">
<g filter="url(#filter0_dd_117_2915)">
<rect x="27.1387" y="5.12012" width="62.9538" height="62.9538" rx="31.4769" fill="#1350E5" fill-opacity="0.1" shape-rendering="crispEdges"/>
<path fill-rule="evenodd" clip-rule="evenodd" d="M58.6156 22.3433C54.9517 22.3433 54.493 22.3586 53.0541 22.4242C51.6178 22.4899 50.6366 22.7183 49.7787 23.0519C48.8793 23.3901 48.0636 23.9207 47.3891 24.6078C46.7031 25.2815 46.1722 26.0967 45.8333 26.9964C45.5014 27.8544 45.2721 28.8365 45.2064 30.2727C45.1417 31.7108 45.1255 32.1685 45.1255 35.8334C45.1255 39.4982 45.1408 39.9559 45.2064 41.3949C45.2721 42.8311 45.5005 43.8123 45.8342 44.6703C46.1723 45.5696 46.7029 46.3853 47.39 47.0598C48.0638 47.7458 48.8789 48.2767 49.7787 48.6157C50.6366 48.9484 51.6178 49.1769 53.0541 49.2425C54.493 49.3082 54.9517 49.3234 58.6156 49.3234C62.2795 49.3234 62.7382 49.3082 64.1771 49.2425C65.6133 49.1769 66.5945 48.9484 67.4525 48.6148C68.3518 48.2766 69.1675 47.746 69.842 47.0589C70.528 46.3852 71.059 45.5701 71.3979 44.6703C71.7306 43.8123 71.9591 42.8311 72.0247 41.3949C72.0904 39.9559 72.1057 39.4973 72.1057 35.8334C72.1057 32.1694 72.0904 31.7108 72.0247 30.2718C71.9591 28.8356 71.7306 27.8544 71.397 26.9964C71.0583 26.0963 70.5274 25.2808 69.8411 24.6069C69.1674 23.9209 68.3523 23.39 67.4525 23.051C66.5945 22.7192 65.6124 22.4899 64.1762 22.4242C62.7382 22.3594 62.2804 22.3433 58.6156 22.3433ZM58.6156 24.7742C62.2174 24.7742 62.6446 24.7877 64.0674 24.8524C65.3822 24.9127 66.0963 25.1312 66.572 25.3174C67.2016 25.5611 67.6512 25.8543 68.1234 26.3255C68.5956 26.7977 68.8878 27.2474 69.1316 27.8769C69.3168 28.3526 69.5363 29.0667 69.5965 30.3816C69.6613 31.8043 69.6748 32.2315 69.6748 35.8334C69.6748 39.4352 69.6613 39.8624 69.5965 41.2852C69.5363 42.6 69.3177 43.3141 69.1316 43.7898C68.9157 44.3758 68.5712 44.9059 68.1234 45.3412C67.6882 45.789 67.1581 46.1335 66.572 46.3493C66.0963 46.5346 65.3822 46.754 64.0674 46.8143C62.6446 46.879 62.2183 46.8925 58.6156 46.8925C55.0128 46.8925 54.5865 46.879 53.1638 46.8143C51.8489 46.754 51.1349 46.5355 50.6591 46.3493C50.0732 46.1334 49.543 45.7889 49.1078 45.3412C48.6601 44.9058 48.3156 44.3757 48.0996 43.7898C47.9143 43.3141 47.6949 42.6 47.6346 41.2852C47.5699 39.8624 47.5564 39.4352 47.5564 35.8334C47.5564 32.2315 47.5699 31.8043 47.6346 30.3816C47.6949 29.0667 47.9134 28.3526 48.0996 27.8769C48.3433 27.2474 48.6365 26.7977 49.1078 26.3255C49.543 25.8777 50.0731 25.5332 50.6591 25.3174C51.1349 25.1321 51.8489 24.9127 53.1638 24.8524C54.5865 24.7877 55.0137 24.7742 58.6156 24.7742Z" fill="#1350E5"/>
<path fill-rule="evenodd" clip-rule="evenodd" d="M58.6155 40.3343C58.0244 40.3343 57.4391 40.2179 56.893 39.9917C56.3469 39.7655 55.8507 39.4339 55.4327 39.016C55.0147 38.598 54.6832 38.1018 54.457 37.5557C54.2308 37.0096 54.1144 36.4242 54.1144 35.8331C54.1144 35.242 54.2308 34.6567 54.457 34.1106C54.6832 33.5645 55.0147 33.0683 55.4327 32.6503C55.8507 32.2323 56.3469 31.9008 56.893 31.6746C57.4391 31.4484 58.0244 31.3319 58.6155 31.3319C59.8093 31.3319 60.9542 31.8062 61.7984 32.6503C62.6425 33.4945 63.1167 34.6393 63.1167 35.8331C63.1167 37.0269 62.6425 38.1718 61.7984 39.016C60.9542 39.8601 59.8093 40.3343 58.6155 40.3343ZM58.6155 28.8992C56.7766 28.8992 55.0129 29.6298 53.7125 30.9301C52.4122 32.2305 51.6816 33.9942 51.6816 35.8331C51.6816 37.6721 52.4122 39.4358 53.7125 40.7362C55.0129 42.0365 56.7766 42.767 58.6155 42.767C60.4545 42.767 62.2182 42.0365 63.5186 40.7362C64.8189 39.4358 65.5495 37.6721 65.5495 35.8331C65.5495 33.9942 64.8189 32.2305 63.5186 30.9301C62.2182 29.6298 60.4545 28.8992 58.6155 28.8992ZM67.5667 28.7733C67.5667 29.208 67.394 29.6249 67.0866 29.9323C66.7792 30.2397 66.3623 30.4124 65.9276 30.4124C65.4929 30.4124 65.076 30.2397 64.7686 29.9323C64.4613 29.6249 64.2886 29.208 64.2886 28.7733C64.2886 28.3386 64.4613 27.9217 64.7686 27.6143C65.076 27.307 65.4929 27.1343 65.9276 27.1343C66.3623 27.1343 66.7792 27.307 67.0866 27.6143C67.394 27.9217 67.5667 28.3386 67.5667 28.7733Z" fill="#1350E5"/>
</g>
<defs>
<filter id="filter0_dd_117_2915" x="0.158487" y="0.623421" width="116.914" height="116.914" filterUnits="userSpaceOnUse" color-interpolation-filters="sRGB">
<feFlood flood-opacity="0" result="BackgroundImageFix"/>
<feColorMatrix in="SourceAlpha" type="matrix" values="0 0 0 0 0 0 0 0 0 0 0 0 0 0 0 0 0 0 127 0" result="hardAlpha"/>
<feMorphology radius="8.99339" operator="erode" in="SourceAlpha" result="effect1_dropShadow_117_2915"/>
<feOffset dy="8.99339"/>
<feGaussianBlur stdDeviation="6.74505"/>
<feComposite in2="hardAlpha" operator="out"/>
<feColorMatrix type="matrix" values="0 0 0 0 0 0 0 0 0 0 0 0 0 0 0 0 0 0 0.1 0"/>
<feBlend mode="normal" in2="BackgroundImageFix" result="effect1_dropShadow_117_2915"/>
<feColorMatrix in="SourceAlpha" type="matrix" values="0 0 0 0 0 0 0 0 0 0 0 0 0 0 0 0 0 0 127 0" result="hardAlpha"/>
<feMorphology radius="6.74505" operator="erode" in="SourceAlpha" result="effect2_dropShadow_117_2915"/>
<feOffset dy="22.4835"/>
<feGaussianBlur stdDeviation="16.8626"/>
<feComposite in2="hardAlpha" operator="out"/>
<feColorMatrix type="matrix" values="0 0 0 0 0 0 0 0 0 0 0 0 0 0 0 0 0 0 0.1 0"/>
<feBlend mode="normal" in2="effect1_dropShadow_117_2915" result="effect2_dropShadow_117_2915"/>
<feBlend mode="normal" in="SourceGraphic" in2="effect2_dropShadow_117_2915" result="shape"/>
</filter>
</defs>
</svg>
