<svg width="35" height="34" viewBox="0 0 35 34" fill="none" xmlns="http://www.w3.org/2000/svg">
<path d="M5.3374 6.64764C5.3374 5.70659 6.10027 4.94373 7.04131 4.94373H27.6389C28.58 4.94373 29.3428 5.70659 29.3428 6.64764V27.2452C29.3428 28.1862 28.58 28.9491 27.6389 28.9491H7.04131C6.10027 28.9491 5.3374 28.1862 5.3374 27.2452V6.64764Z" fill="white"/>
<path d="M10.7253 12.3987C11.8754 12.3987 12.8078 11.4663 12.8078 10.3162C12.8078 9.16612 11.8754 8.23376 10.7253 8.23376C9.57517 8.23376 8.64282 9.16612 8.64282 10.3162C8.64282 11.4663 9.57517 12.3987 10.7253 12.3987Z" fill="#0F1C32"/>
<path d="M14.7149 13.9377H18.1663V15.5188C18.1663 15.5188 19.1028 13.6456 21.6511 13.6456C23.9242 13.6456 25.8073 14.7654 25.8073 18.1787V25.3763H22.2307V19.0509C22.2307 17.0374 21.1558 16.8159 20.3366 16.8159C18.6366 16.8159 18.3456 18.2822 18.3456 19.3135V25.3763H14.7149V13.9377Z" fill="#0F1C32"/>
<path d="M8.90995 13.9377H12.5406V25.3763H8.90995V13.9377Z" fill="#0F1C32"/>
</svg>
