<svg width="130" height="25" viewBox="0 0 130 25" fill="none" xmlns="http://www.w3.org/2000/svg">
<path d="M0.272 24V1.6H9.04C10.6187 1.6 11.9307 1.84533 12.976 2.336C14.0427 2.82667 14.8427 3.50933 15.376 4.384C15.9093 5.23733 16.176 6.22933 16.176 7.36C16.176 8.49067 15.9307 9.44 15.44 10.208C14.9493 10.976 14.2987 11.5627 13.488 11.968C12.6987 12.3733 11.8347 12.6187 10.896 12.704L11.376 12.352C12.3787 12.3733 13.2747 12.64 14.064 13.152C14.8747 13.664 15.5147 14.336 15.984 15.168C16.4533 15.9787 16.688 16.8853 16.688 17.888C16.688 19.0613 16.4 20.1173 15.824 21.056C15.2693 21.9733 14.448 22.6987 13.36 23.232C12.272 23.744 10.9387 24 9.36 24H0.272ZM4.112 20.864H8.784C10.0427 20.864 11.024 20.5653 11.728 19.968C12.432 19.3707 12.784 18.5387 12.784 17.472C12.784 16.4053 12.4213 15.5627 11.696 14.944C10.9707 14.304 9.97867 13.984 8.72 13.984H4.112V20.864ZM4.112 11.072H8.496C9.73333 11.072 10.672 10.7947 11.312 10.24C11.952 9.664 12.272 8.87467 12.272 7.872C12.272 6.89067 11.952 6.12267 11.312 5.568C10.672 4.992 9.72267 4.704 8.464 4.704H4.112V11.072ZM20.3978 24V7.872H24.2378V24H20.3978ZM22.3177 5.312C21.6138 5.312 21.0271 5.09867 20.5578 4.672C20.1098 4.224 19.8858 3.68 19.8858 3.04C19.8858 2.37867 20.1098 1.84533 20.5578 1.44C21.0271 1.01333 21.6138 0.799999 22.3177 0.799999C23.0218 0.799999 23.5978 1.01333 24.0458 1.44C24.5151 1.84533 24.7498 2.37867 24.7498 3.04C24.7498 3.68 24.5151 4.224 24.0458 4.672C23.5978 5.09867 23.0218 5.312 22.3177 5.312ZM35.8433 24.384C34.3499 24.384 33.0166 24.0213 31.8433 23.296C30.6699 22.5707 29.7526 21.568 29.0913 20.288C28.4513 19.008 28.1313 17.5573 28.1313 15.936C28.1313 14.3147 28.4619 12.8747 29.1233 11.616C29.7846 10.336 30.7019 9.33333 31.8753 8.608C33.0699 7.86133 34.4139 7.488 35.9073 7.488C37.1233 7.488 38.1793 7.72267 39.0753 8.192C39.9926 8.64 40.7179 9.28 41.2513 10.112V0.959999H45.0913V24H41.6353L41.2513 21.664C40.9099 22.1333 40.4939 22.5813 40.0033 23.008C39.5126 23.4133 38.9259 23.744 38.2433 24C37.5606 24.256 36.7606 24.384 35.8433 24.384ZM36.6433 21.056C37.5606 21.056 38.3713 20.8427 39.0753 20.416C39.7793 19.968 40.3233 19.36 40.7073 18.592C41.0913 17.824 41.2833 16.9387 41.2833 15.936C41.2833 14.9333 41.0913 14.048 40.7073 13.28C40.3233 12.512 39.7793 11.9147 39.0753 11.488C38.3713 11.0613 37.5606 10.848 36.6433 10.848C35.7686 10.848 34.9793 11.0613 34.2753 11.488C33.5713 11.9147 33.0166 12.512 32.6113 13.28C32.2273 14.048 32.0353 14.9333 32.0353 15.936C32.0353 16.9387 32.2273 17.824 32.6113 18.592C33.0166 19.36 33.5713 19.968 34.2753 20.416C34.9793 20.8427 35.7686 21.056 36.6433 21.056ZM55.7948 24.384C54.3654 24.384 53.1174 24.16 52.0508 23.712C51.0054 23.2427 50.1734 22.6027 49.5548 21.792C48.9574 20.96 48.6054 20.0107 48.4988 18.944H52.3388C52.4454 19.392 52.6374 19.808 52.9148 20.192C53.1921 20.5547 53.5654 20.8427 54.0348 21.056C54.5254 21.2693 55.1014 21.376 55.7628 21.376C56.4028 21.376 56.9254 21.2907 57.3308 21.12C57.7361 20.928 58.0348 20.6827 58.2268 20.384C58.4188 20.0853 58.5148 19.7653 58.5148 19.424C58.5148 18.912 58.3761 18.5173 58.0988 18.24C57.8214 17.9627 57.4161 17.7493 56.8828 17.6C56.3708 17.4293 55.7521 17.2693 55.0268 17.12C54.2588 16.9707 53.5121 16.7893 52.7868 16.576C52.0828 16.3413 51.4428 16.0533 50.8668 15.712C50.3121 15.3707 49.8641 14.9333 49.5228 14.4C49.2028 13.8667 49.0428 13.216 49.0428 12.448C49.0428 11.5093 49.2881 10.6667 49.7788 9.92C50.2908 9.17333 51.0161 8.58667 51.9548 8.16C52.9148 7.712 54.0561 7.488 55.3788 7.488C57.2561 7.488 58.7494 7.92533 59.8588 8.8C60.9894 9.65333 61.6508 10.8587 61.8428 12.416H58.1948C58.0881 11.8187 57.7894 11.36 57.2988 11.04C56.8081 10.6987 56.1574 10.528 55.3468 10.528C54.5148 10.528 53.8748 10.688 53.4268 11.008C53.0001 11.3067 52.7868 11.712 52.7868 12.224C52.7868 12.5653 52.9148 12.864 53.1708 13.12C53.4481 13.376 53.8428 13.6 54.3548 13.792C54.8668 13.9627 55.4961 14.1333 56.2428 14.304C57.4374 14.5387 58.4934 14.816 59.4108 15.136C60.3281 15.456 61.0534 15.9253 61.5868 16.544C62.1201 17.1627 62.3868 18.0373 62.3868 19.168C62.4081 20.192 62.1414 21.0987 61.5868 21.888C61.0534 22.6773 60.2961 23.296 59.3148 23.744C58.3334 24.1707 57.1601 24.384 55.7948 24.384ZM81.5733 24.384C79.9519 24.384 78.5119 24.096 77.2533 23.52C75.9946 22.944 75.0133 22.1227 74.3093 21.056C73.6053 19.9893 73.2426 18.72 73.2213 17.248H77.2853C77.2853 17.9947 77.4559 18.6667 77.7973 19.264C78.1599 19.84 78.6506 20.2987 79.2693 20.64C79.9093 20.9813 80.6773 21.152 81.5733 21.152C82.3413 21.152 83.0026 21.0347 83.5573 20.8C84.1333 20.544 84.5706 20.192 84.8693 19.744C85.1893 19.2747 85.3493 18.7307 85.3493 18.112C85.3493 17.408 85.1786 16.832 84.8373 16.384C84.5173 15.9147 84.0693 15.52 83.4933 15.2C82.9173 14.88 82.2559 14.6027 81.5093 14.368C80.7626 14.112 79.9733 13.8453 79.1413 13.568C77.3706 12.9707 76.0373 12.2133 75.1413 11.296C74.2453 10.3573 73.7973 9.10933 73.7973 7.552C73.7973 6.25067 74.1066 5.13067 74.7253 4.192C75.3439 3.25333 76.2079 2.528 77.3173 2.016C78.4479 1.48267 79.7493 1.216 81.2213 1.216C82.7146 1.216 84.0159 1.48267 85.1253 2.016C86.2559 2.54933 87.1413 3.296 87.7812 4.256C88.4426 5.19467 88.7839 6.32533 88.8053 7.648H84.7093C84.6879 7.09333 84.5386 6.58133 84.2613 6.112C83.9839 5.62133 83.5786 5.22667 83.0453 4.928C82.5333 4.608 81.9039 4.448 81.1573 4.448C80.5173 4.42667 79.9413 4.53333 79.4293 4.768C78.9386 4.98133 78.5439 5.30133 78.2453 5.728C77.9679 6.13333 77.8293 6.64533 77.8293 7.264C77.8293 7.86133 77.9573 8.36267 78.2133 8.768C78.4906 9.152 78.8853 9.48267 79.3973 9.76C79.9093 10.016 80.5066 10.2613 81.1892 10.496C81.8719 10.7307 82.6186 10.9867 83.4293 11.264C84.5386 11.6267 85.5413 12.0747 86.4373 12.608C87.3546 13.12 88.0799 13.792 88.6133 14.624C89.1466 15.456 89.4132 16.5333 89.4132 17.856C89.4132 19.008 89.1146 20.0853 88.5173 21.088C87.9199 22.0693 87.0453 22.8693 85.8933 23.488C84.7413 24.0853 83.3013 24.384 81.5733 24.384ZM99.003 24.384C97.7017 24.384 96.5817 24.128 95.643 23.616C94.7257 23.0827 94.0217 22.2933 93.531 21.248C93.0403 20.1813 92.795 18.8693 92.795 17.312V7.872H96.635V16.928C96.635 18.3147 96.923 19.3707 97.499 20.096C98.0963 20.8 98.9923 21.152 100.187 21.152C100.955 21.152 101.638 20.9707 102.235 20.608C102.854 20.2453 103.334 19.7227 103.675 19.04C104.038 18.336 104.219 17.4827 104.219 16.48V7.872H108.059V24H104.667L104.379 21.312C103.888 22.2507 103.174 22.9973 102.235 23.552C101.318 24.1067 100.24 24.384 99.003 24.384ZM121.548 24.384C120.694 24.384 119.926 24.2667 119.244 24.032C118.561 23.8187 117.964 23.52 117.452 23.136C116.94 22.7307 116.513 22.272 116.172 21.76L115.756 24H112.332V0.959999H116.172V10.24C116.684 9.45067 117.377 8.8 118.252 8.288C119.126 7.75467 120.214 7.488 121.516 7.488C123.03 7.488 124.364 7.86133 125.516 8.608C126.689 9.33333 127.606 10.336 128.267 11.616C128.95 12.8747 129.292 14.3253 129.292 15.968C129.292 17.568 128.961 19.008 128.3 20.288C127.638 21.568 126.721 22.5707 125.548 23.296C124.396 24.0213 123.062 24.384 121.548 24.384ZM120.748 21.056C121.644 21.056 122.444 20.8427 123.148 20.416C123.852 19.968 124.396 19.3707 124.78 18.624C125.185 17.856 125.388 16.96 125.388 15.936C125.388 14.9333 125.185 14.048 124.78 13.28C124.396 12.512 123.852 11.9147 123.148 11.488C122.444 11.0613 121.644 10.848 120.748 10.848C119.83 10.848 119.02 11.0613 118.316 11.488C117.633 11.9147 117.089 12.512 116.684 13.28C116.3 14.048 116.108 14.9333 116.108 15.936C116.108 16.96 116.3 17.856 116.684 18.624C117.089 19.3707 117.633 19.968 118.316 20.416C119.02 20.8427 119.83 21.056 120.748 21.056Z" fill="white"/>
</svg>
