<svg width="18" height="19" viewBox="0 0 18 19" fill="none" xmlns="http://www.w3.org/2000/svg">
<path d="M3.54 2.59717C3.6 3.48717 3.75 4.35717 3.99 5.18717L2.79 6.38717C2.38 5.18717 2.12 3.91717 2.03 2.59717H3.54ZM13.4 14.6172C14.25 14.8572 15.12 15.0072 16 15.0672V16.5572C14.68 16.4672 13.41 16.2072 12.2 15.8072L13.4 14.6172ZM4.5 0.597168H1C0.45 0.597168 0 1.04717 0 1.59717C0 10.9872 7.61 18.5972 17 18.5972C17.55 18.5972 18 18.1472 18 17.5972V14.1072C18 13.5572 17.55 13.1072 17 13.1072C15.76 13.1072 14.55 12.9072 13.43 12.5372C13.33 12.4972 13.22 12.4872 13.12 12.4872C12.86 12.4872 12.61 12.5872 12.41 12.7772L10.21 14.9772C7.38 13.5272 5.06 11.2172 3.62 8.38717L5.82 6.18717C6.1 5.90717 6.18 5.51717 6.07 5.16717C5.7 4.04717 5.5 2.84717 5.5 1.59717C5.5 1.04717 5.05 0.597168 4.5 0.597168Z" fill="white"/>
</svg>
