<svg width="124" height="124" viewBox="0 0 124 124" fill="none" xmlns="http://www.w3.org/2000/svg">
<path d="M98.89 104.625C97.9083 104.625 96.9267 104.264 96.1517 103.54C94.6017 102.042 94.6017 99.6137 96.1 98.0637C104.935 89.0737 109.792 77.1903 109.792 64.5837C109.792 38.2337 88.35 16.792 62 16.792C35.65 16.792 14.2083 38.2337 14.2083 64.5837C14.2083 77.1387 19.0133 88.9703 27.7967 97.9603C29.295 99.5103 29.2433 101.939 27.745 103.437C26.195 104.935 23.7667 104.884 22.2683 103.385C12.09 92.9487 6.45833 79.1537 6.45833 64.5837C6.45833 33.9453 31.3617 9.04199 62 9.04199C92.6383 9.04199 117.542 33.9453 117.542 64.5837C117.542 79.2053 111.91 93.052 101.628 103.489C100.905 104.264 99.8717 104.625 98.89 104.625Z" fill="#1350E5"/>
<path d="M62 113.668C73.0714 113.668 82.0466 104.692 82.0466 93.6209C82.0466 82.5494 73.0714 73.5742 62 73.5742C50.9285 73.5742 41.9533 82.5494 41.9533 93.6209C41.9533 104.692 50.9285 113.668 62 113.668Z" fill="#9A9EA6" fill-opacity="0.6"/>
<path d="M82.6667 43.917C76.9833 43.917 72.3333 48.567 72.3333 54.2503V58.1253C72.3333 61.6903 75.2267 64.5837 78.7917 64.5837H82.6667C88.35 64.5837 93 59.9337 93 54.2503C93 48.567 88.35 43.917 82.6667 43.917Z" fill="#9A9EA6" fill-opacity="0.6"/>
</svg>
