<svg width="313" height="311" viewBox="0 0 313 311" fill="none" xmlns="http://www.w3.org/2000/svg">
<g filter="url(#filter0_f_117_2480)">
<ellipse cx="156.5" cy="155.5" rx="56.5" ry="55.5" fill="#1350E5" fill-opacity="0.1"/>
</g>
<ellipse cx="138" cy="170.5" rx="87" ry="29.5" fill="url(#paint0_linear_117_2480)" fill-opacity="0.05"/>
<path d="M174.89 173.625C173.908 173.625 172.927 173.263 172.152 172.54C170.602 171.042 170.602 168.613 172.1 167.063C180.935 158.073 185.792 146.19 185.792 133.583C185.792 107.233 164.35 85.7917 138 85.7917C111.65 85.7917 90.2083 107.233 90.2083 133.583C90.2083 146.138 95.0133 157.97 103.797 166.96C105.295 168.51 105.243 170.938 103.745 172.437C102.195 173.935 99.7667 173.883 98.2683 172.385C88.09 161.948 82.4583 148.153 82.4583 133.583C82.4583 102.945 107.362 78.0417 138 78.0417C168.638 78.0417 193.542 102.945 193.542 133.583C193.542 148.205 187.91 162.052 177.628 172.488C176.905 173.263 175.872 173.625 174.89 173.625Z" fill="#1350E5"/>
<path d="M138.001 182.667C149.072 182.667 158.047 173.691 158.047 162.62C158.047 151.548 149.072 142.573 138.001 142.573C126.929 142.573 117.954 151.548 117.954 162.62C117.954 173.691 126.929 182.667 138.001 182.667Z" fill="#7D7F82"/>
<path d="M158.667 112.917C152.983 112.917 148.333 117.567 148.333 123.25V127.125C148.333 130.69 151.227 133.583 154.792 133.583H158.667C164.35 133.583 169 128.933 169 123.25C169 117.567 164.35 112.917 158.667 112.917Z" fill="#7D7F82"/>
<defs>
<filter id="filter0_f_117_2480" x="0" y="0" width="313" height="311" filterUnits="userSpaceOnUse" color-interpolation-filters="sRGB">
<feFlood flood-opacity="0" result="BackgroundImageFix"/>
<feBlend mode="normal" in="SourceGraphic" in2="BackgroundImageFix" result="shape"/>
<feGaussianBlur stdDeviation="50" result="effect1_foregroundBlur_117_2480"/>
</filter>
<linearGradient id="paint0_linear_117_2480" x1="138" y1="141" x2="138" y2="200" gradientUnits="userSpaceOnUse">
<stop stop-color="white"/>
<stop offset="1" stop-color="white" stop-opacity="0.5"/>
</linearGradient>
</defs>
</svg>
