<svg width="117" height="118" viewBox="0 0 117 118" fill="none" xmlns="http://www.w3.org/2000/svg">
<g filter="url(#filter0_dd_117_2919)">
<rect x="27.0463" y="5.12012" width="62.9538" height="62.9538" rx="31.4769" fill="#1350E5" fill-opacity="0.1" shape-rendering="crispEdges"/>
<path d="M72.9292 29.1249C72.9214 28.905 72.8328 28.6958 72.6804 28.537C72.5281 28.3782 72.3227 28.281 72.1034 28.2638C70.6424 28.1277 69.2486 27.586 68.0792 26.6998C67.2114 26.0421 66.4856 25.2159 65.9449 24.2707C65.4044 23.3255 65.0604 22.2809 64.9336 21.1995C64.9164 20.9801 64.8192 20.7747 64.6604 20.6224C64.5017 20.4701 64.2924 20.3815 64.0726 20.3735H60.5579C60.4432 20.3735 60.3299 20.3964 60.2242 20.4407C60.1186 20.4851 60.0229 20.5501 59.9427 20.6319C59.8626 20.7138 59.7994 20.8108 59.7572 20.9173C59.7151 21.0238 59.6944 21.1376 59.6967 21.2522V42.2344C59.6871 43.2064 59.3734 44.1507 58.7999 44.9355C58.2262 45.7202 57.4216 46.3057 56.4986 46.61C55.9323 46.7959 55.3362 46.8734 54.7412 46.8385C53.9902 46.7974 53.2605 46.5742 52.6149 46.1884C51.69 45.6407 50.9811 44.7922 50.6069 43.7845C50.2326 42.777 50.2157 41.6714 50.5588 40.6529C50.9108 39.6404 51.5965 38.7775 52.5033 38.206C53.4101 37.6344 54.4843 37.388 55.5496 37.5072C55.6676 37.5195 55.7867 37.507 55.8994 37.4702C56.0121 37.4334 56.1157 37.3732 56.2037 37.2935C56.2916 37.214 56.3617 37.1167 56.4094 37.0082C56.4572 36.8997 56.4816 36.7824 56.4809 36.6637V32.5517C56.4809 32.5517 54.9872 32.4462 54.4776 32.4462C53.1707 32.4401 51.879 32.7257 50.6964 33.282C49.5138 33.8384 48.4703 34.6514 47.6417 35.662C46.5399 36.8482 45.7543 38.2925 45.3572 39.862C44.9498 41.5097 44.9786 43.235 45.4408 44.8682C45.903 46.5014 46.7827 47.986 47.9932 49.1757C48.2832 49.4679 48.5945 49.738 48.9245 49.984C50.6611 51.3235 52.7941 52.047 54.9872 52.0402C55.487 52.0405 55.9862 52.0052 56.4809 51.9347C58.5669 51.6255 60.4999 50.659 61.9989 49.1757C62.9154 48.2765 63.6449 47.205 64.1456 46.0229C64.6462 44.8405 64.9081 43.571 64.9161 42.2872V30.7241C66.9449 32.2899 69.3892 33.2249 71.9452 33.4127C72.0641 33.42 72.1833 33.4025 72.2951 33.3615C72.4071 33.3204 72.5091 33.2565 72.5949 33.174C72.6809 33.0914 72.7487 32.9919 72.7941 32.8817C72.8396 32.7716 72.8618 32.6532 72.8591 32.5341V29.1249H72.9292Z" fill="#1350E5"/>
</g>
<defs>
<filter id="filter0_dd_117_2919" x="0.0660801" y="0.623421" width="116.914" height="116.914" filterUnits="userSpaceOnUse" color-interpolation-filters="sRGB">
<feFlood flood-opacity="0" result="BackgroundImageFix"/>
<feColorMatrix in="SourceAlpha" type="matrix" values="0 0 0 0 0 0 0 0 0 0 0 0 0 0 0 0 0 0 127 0" result="hardAlpha"/>
<feMorphology radius="8.99339" operator="erode" in="SourceAlpha" result="effect1_dropShadow_117_2919"/>
<feOffset dy="8.99339"/>
<feGaussianBlur stdDeviation="6.74505"/>
<feComposite in2="hardAlpha" operator="out"/>
<feColorMatrix type="matrix" values="0 0 0 0 0 0 0 0 0 0 0 0 0 0 0 0 0 0 0.1 0"/>
<feBlend mode="normal" in2="BackgroundImageFix" result="effect1_dropShadow_117_2919"/>
<feColorMatrix in="SourceAlpha" type="matrix" values="0 0 0 0 0 0 0 0 0 0 0 0 0 0 0 0 0 0 127 0" result="hardAlpha"/>
<feMorphology radius="6.74505" operator="erode" in="SourceAlpha" result="effect2_dropShadow_117_2919"/>
<feOffset dy="22.4835"/>
<feGaussianBlur stdDeviation="16.8626"/>
<feComposite in2="hardAlpha" operator="out"/>
<feColorMatrix type="matrix" values="0 0 0 0 0 0 0 0 0 0 0 0 0 0 0 0 0 0 0.1 0"/>
<feBlend mode="normal" in2="effect1_dropShadow_117_2919" result="effect2_dropShadow_117_2919"/>
<feBlend mode="normal" in="SourceGraphic" in2="effect2_dropShadow_117_2919" result="shape"/>
</filter>
</defs>
</svg>
