<svg width="150" height="58" viewBox="0 0 150 58" fill="none" xmlns="http://www.w3.org/2000/svg">
<g opacity="0.5">
<path d="M20.0382 29.7817C25.5115 24.2346 30.9615 18.7106 36.4768 13.1215C36.2855 13.0678 36.1826 13.0128 36.0812 13.0128C31.8788 13.0157 27.6779 13.0157 23.4755 13.0316C16.0837 13.0577 9.44246 18.5295 7.98322 25.7894C7.02972 30.5338 7.71804 34.9622 10.6901 38.8748C12.9058 41.7932 15.8373 43.6032 19.489 44.2161C23.7131 44.9262 27.559 44.0045 30.918 41.4034C33.7525 39.2095 35.4856 36.2693 35.9073 32.6625C36.0609 31.3496 36.0812 30.0164 36.0739 28.692C36.0696 27.9529 36.3377 27.4342 36.9187 27.0472C37.7621 26.4864 38.5953 25.9054 39.4706 25.4011C40.7646 24.6548 42.3412 25.4576 42.376 26.9415C42.4441 29.8527 42.5746 32.7712 41.7848 35.6346C40.6473 39.7659 38.3852 43.1713 35.1885 45.9724C32.2889 48.5127 28.9067 50.1125 25.097 50.6501C19.6963 51.4109 14.6983 50.2893 10.2511 47.0476C5.87044 43.8538 3.03167 39.579 2.05498 34.2753C0.773979 27.3168 1.90137 20.777 6.38632 15.0777C9.65548 10.9246 13.9231 8.29742 19.0891 7.22074C20.7048 6.8831 22.3858 6.73819 24.0377 6.72225C29.8095 6.66284 35.5812 6.69762 41.353 6.69762C41.6631 6.69762 41.9717 6.69762 42.3398 6.69762C42.3615 6.98888 42.3949 7.22219 42.3949 7.45404C42.4007 10.0856 42.3833 12.7186 42.4209 15.3502C42.4296 15.9646 42.2282 16.3935 41.8094 16.8079C38.5504 20.038 35.3015 23.2767 32.0541 26.5183C28.6024 29.9643 25.1579 33.4175 21.7105 36.8692C21.4888 37.0909 21.2729 37.3199 21.0439 37.5343C20.4049 38.1314 19.7542 38.1502 19.134 37.5314C17.0647 35.4694 15.0113 33.3914 12.9493 31.3206C12.5073 30.8758 12.0378 30.457 11.6118 29.9962C10.8597 29.1818 10.9133 28.2239 11.7813 27.5457C12.6174 26.8936 13.4898 26.285 14.3665 25.688C14.9795 25.2707 15.5939 25.2953 16.1358 25.843C17.3226 27.0458 18.5036 28.2529 19.6876 29.4571C19.7687 29.5397 19.8571 29.615 20.0368 29.7817H20.0382Z" fill="#0B1423"/>
<path d="M50.1807 19.6464C51.324 19.6464 52.4311 19.6391 53.5382 19.6478C55.493 19.6652 57.4479 19.6696 59.4013 19.7217C61.6039 19.7812 63.5862 21.1752 64.218 23.0489C64.9832 25.3152 64.1065 27.5584 62.0009 28.7221C61.8212 28.8221 61.6502 28.9365 61.3836 29.1017C61.6546 29.2611 61.8241 29.3843 62.0111 29.4669C64.9353 30.7421 65.4135 34.3054 63.8065 36.6356C62.8327 38.047 61.4343 38.8918 59.7563 38.9817C56.7248 39.144 53.6846 39.1353 50.6487 39.2005C50.2676 39.2092 50.0908 39.0831 50.0908 38.6571C50.1039 32.4288 50.101 26.2021 50.1039 19.9739C50.1039 19.9058 50.1328 19.8391 50.1763 19.6464H50.1807ZM54.1034 33.2722H54.099C54.099 33.8982 54.1106 34.5242 54.0947 35.1502C54.0845 35.5212 54.1642 35.7357 54.6047 35.7284C55.7597 35.7081 56.9175 35.7603 58.0724 35.7125C59.4404 35.656 60.4678 34.7286 60.5663 33.5519C60.6866 32.1303 60.0171 31.1087 58.5231 30.8885C57.203 30.6928 55.8408 30.7711 54.4961 30.7783C54.3642 30.7783 54.1367 31.1232 54.1222 31.3217C54.0744 31.968 54.1048 32.6201 54.1048 33.2708L54.1034 33.2722ZM54.1208 27.4367C55.6626 27.4367 57.1073 27.5048 58.5419 27.415C59.6259 27.3469 60.3663 26.4354 60.4156 25.3761C60.4721 24.1821 60.0446 23.4546 58.8028 23.2967C57.3595 23.1126 55.8799 23.1996 54.4164 23.1996C54.3178 23.1996 54.1352 23.4575 54.1338 23.5981C54.1121 24.8443 54.1208 26.092 54.1208 27.4367Z" fill="#0B1423"/>
<path d="M91.6233 33.1656C92.3478 36.1942 95.8213 36.6478 97.6356 35.6117C99.0455 34.806 99.1412 32.983 97.7747 32.1092C97.1791 31.7281 96.4604 31.5354 95.7865 31.2861C94.1882 30.6949 92.5246 30.2442 90.9987 29.5067C89.0627 28.572 88.1643 26.8722 88.2933 24.713C88.4193 22.635 89.3279 20.9642 91.2827 20.1165C94.2838 18.8152 97.3066 18.8471 100.15 20.5628C101.858 21.5946 102.46 23.3074 102.535 25.2709C101.313 25.3927 100.147 25.5231 98.9774 25.5999C98.8644 25.6071 98.6673 25.2941 98.6166 25.1014C98.3021 23.9102 97.5269 23.1335 96.3647 22.893C95.1779 22.6466 93.9491 22.5843 92.9608 23.5494C92.2044 24.2885 92.1261 25.226 92.9666 25.8709C93.6897 26.4259 94.5852 26.7867 95.4489 27.1214C96.856 27.6678 98.3442 28.0228 99.7179 28.6386C102.687 29.9689 103.336 32.6744 102.641 35.3422C102.031 37.6868 100.248 38.8606 98.0399 39.346C96.0749 39.7778 94.065 39.7749 92.1203 39.0953C89.738 38.2621 88.2353 36.655 87.8614 34.109C87.8368 33.9394 88.0397 33.5859 88.1715 33.567C89.3091 33.4033 90.4553 33.296 91.6189 33.17L91.6233 33.1656Z" fill="#0B1423"/>
<path d="M82.5449 26.1244V19.7354H86.4343C86.4343 20.7526 86.4343 21.7583 86.4343 22.764C86.4343 28.0024 86.4227 33.2409 86.4488 38.4794C86.4517 39.0793 86.2517 39.2344 85.7083 39.2112C84.9852 39.1822 84.2577 39.1735 83.5361 39.2155C82.8985 39.2532 82.5724 39.0619 82.671 38.3722C82.6971 38.1939 82.655 38.007 82.6391 37.7389C82.4739 37.8403 82.3565 37.878 82.2899 37.9592C80.4727 40.1574 76.4891 39.9633 74.3981 38.4127C72.4925 36.9999 71.6448 35.0813 71.5318 32.7613C71.4333 30.7383 71.7419 28.8328 72.9171 27.1228C75.0487 24.0232 79.5134 23.4204 82.216 25.9795C82.2623 26.0244 82.3391 26.036 82.5435 26.1244H82.5449ZM82.6768 32.0498C82.5058 31.3339 82.4145 30.5847 82.145 29.9065C81.5639 28.4444 80.3727 27.7836 78.6918 27.8619C77.389 27.9227 76.1109 28.8603 75.7863 30.1833C75.5777 31.0325 75.5067 31.9483 75.5617 32.8221C75.7371 35.5841 78.6584 37.0173 80.9741 35.5073C82.2058 34.7045 82.6043 33.4887 82.6782 32.0483L82.6768 32.0498Z" fill="#0B1423"/>
<path d="M123.338 37.9576C123.253 38.7942 122.807 39.211 121.999 39.2081C121.42 39.2067 120.837 39.1632 120.262 39.2081C119.643 39.256 119.494 39.0111 119.497 38.4213C119.517 33.2524 119.51 28.0849 119.51 22.916C119.51 22.0465 119.527 21.177 119.501 20.3076C119.486 19.8497 119.623 19.6526 120.111 19.6656C121.146 19.6932 122.18 19.6743 123.302 19.6743V26.0837C123.49 25.9996 123.587 25.9851 123.64 25.9286C125.932 23.4652 130.579 24.097 132.628 26.588C134.472 28.8297 134.838 31.4163 134.201 34.1537C133.331 37.8837 130.52 39.8747 126.693 39.5269C125.449 39.4139 124.348 38.8748 123.338 37.9561V37.9576ZM127.038 27.8574C125.212 27.8298 124.013 28.6848 123.532 30.3658C123.227 31.4352 123.208 32.5162 123.528 33.5798C123.961 35.0202 125.005 35.8144 126.442 36.0679C127.929 36.3302 129.29 35.6781 130.02 34.4174C130.7 33.2451 130.737 31.9714 130.44 30.7019C130.001 28.8254 128.827 27.8849 127.038 27.8588V27.8574Z" fill="#0B1423"/>
<path d="M104.364 25.1703C105.574 25.1703 106.772 25.1515 107.969 25.1993C108.086 25.2036 108.278 25.6181 108.28 25.8441C108.304 28.3047 108.308 30.7667 108.289 33.2273C108.28 34.2851 108.518 35.1908 109.53 35.7197C110.635 36.2994 111.742 36.2182 112.755 35.5444C113.509 35.043 113.765 34.2243 113.765 33.3389C113.768 30.8783 113.783 28.4163 113.744 25.9557C113.733 25.3036 113.933 25.1297 114.567 25.1631C115.594 25.2181 116.627 25.1776 117.695 25.1776C117.713 25.4775 117.734 25.6876 117.734 25.8992C117.734 30.074 117.724 34.2474 117.746 38.4223C117.749 39.0106 117.597 39.2541 116.982 39.2135C116.31 39.1686 115.629 39.157 114.956 39.2077C114.294 39.2584 114.006 39.041 114.113 38.3643C114.135 38.231 114.1 38.089 114.087 37.8629C113.913 37.9716 113.786 38.0223 113.697 38.1122C110.903 40.9234 105.771 39.7105 104.571 35.9414C104.42 35.4661 104.324 34.9503 104.322 34.4518C104.297 31.484 104.307 28.5163 104.308 25.5485C104.308 25.4572 104.333 25.3659 104.362 25.1689L104.364 25.1703Z" fill="#0B1423"/>
<path d="M135.458 34.7808C136.509 34.6996 137.507 34.6025 138.509 34.5663C138.652 34.5605 138.875 34.8213 138.945 35.0025C139.558 36.6037 141.597 37.3529 143.086 36.4849C143.623 36.1719 143.882 35.6951 143.865 35.0372C143.849 34.4373 143.485 34.1504 143.023 33.9881C141.798 33.5577 140.553 33.1868 139.326 32.768C138.873 32.6129 138.432 32.4086 138.005 32.1912C134.988 30.6653 135.287 26.7702 137.836 25.3051C140.264 23.9097 142.789 23.9705 145.207 25.3298C146.627 26.1282 147.289 27.473 147.298 29.1844C146.211 29.2655 145.169 29.3438 144.144 29.4206C143.536 27.5512 142.652 26.973 140.866 27.2252C140.106 27.3324 139.594 27.7773 139.501 28.412C139.406 29.0655 139.732 29.6626 140.462 29.9335C141.408 30.2857 142.397 30.5219 143.346 30.8668C144.154 31.1609 144.957 31.4884 145.72 31.8855C147.784 32.9607 147.651 36.2849 146.461 37.6181C145.364 38.8498 144.005 39.4961 142.403 39.528C141.31 39.5497 140.164 39.5121 139.128 39.2063C136.828 38.5267 135.912 37.3442 135.456 34.7837L135.458 34.7808Z" fill="#0B1423"/>
<path d="M66.2524 25.2041H69.8882C69.9041 25.4591 69.9316 25.6895 69.9316 25.9214C69.9345 30.0731 69.9229 34.2262 69.949 38.3778C69.9534 39.0009 69.7969 39.2502 69.1448 39.211C68.3275 39.1618 67.5015 39.227 66.6842 39.1734C66.4944 39.1603 66.164 38.8691 66.164 38.7039C66.1437 34.2624 66.1568 29.8224 66.1669 25.3809C66.1669 25.3389 66.206 25.2968 66.2524 25.2041Z" fill="#0B1423"/>
<path d="M68.1146 23.349C66.9538 23.336 66.0815 22.5187 66.0989 21.4609C66.1163 20.332 67.1292 19.3351 68.232 19.3568C69.2811 19.3785 70.2969 20.3712 70.3013 21.3812C70.3056 22.5622 69.4159 23.3635 68.116 23.3476L68.1146 23.349Z" fill="#0B1423"/>
</g>
</svg>
