<svg width="150" height="58" viewBox="0 0 150 58" fill="none" xmlns="http://www.w3.org/2000/svg">
<g opacity="0.5">
<path d="M20.038 29.7817C25.5112 24.2346 30.9613 18.7106 36.4765 13.1215C36.2852 13.0678 36.1824 13.0128 36.0809 13.0128C31.8785 13.0157 27.6776 13.0157 23.4752 13.0316C16.0834 13.0577 9.44222 18.5295 7.98298 25.7894C7.02948 30.5338 7.71779 34.9622 10.6899 38.8748C12.9056 41.7932 15.8371 43.6032 19.4888 44.2161C23.7129 44.9262 27.5588 44.0045 30.9178 41.4034C33.7522 39.2095 35.4853 36.2693 35.907 32.6625C36.0606 31.3496 36.0809 30.0164 36.0737 28.692C36.0693 27.9529 36.3374 27.4342 36.9185 27.0472C37.7619 26.4864 38.5951 25.9054 39.4703 25.4011C40.7644 24.6548 42.341 25.4576 42.3758 26.9415C42.4439 29.8527 42.5743 32.7712 41.7845 35.6346C40.647 39.7659 38.385 43.1713 35.1883 45.9724C32.2886 48.5127 28.9065 50.1125 25.0968 50.6501C19.696 51.4109 14.6981 50.2893 10.2508 47.0476C5.8702 43.8538 3.03142 39.579 2.05473 34.2753C0.773735 27.3168 1.90113 20.777 6.38608 15.0777C9.65523 10.9246 13.9228 8.29742 19.0888 7.22074C20.7046 6.8831 22.3855 6.73819 24.0375 6.72225C29.8092 6.66284 35.581 6.69762 41.3527 6.69762C41.6628 6.69762 41.9715 6.69762 42.3396 6.69762C42.3613 6.98888 42.3946 7.22219 42.3946 7.45404C42.4004 10.0856 42.383 12.7186 42.4207 15.3502C42.4294 15.9646 42.228 16.3935 41.8092 16.8079C38.5502 20.038 35.3013 23.2767 32.0539 26.5183C28.6021 29.9643 25.1576 33.4175 21.7102 36.8692C21.4885 37.0909 21.2726 37.3199 21.0437 37.5343C20.4046 38.1314 19.754 38.1502 19.1338 37.5314C17.0645 35.4694 15.0111 33.3914 12.949 31.3206C12.5071 30.8758 12.0375 30.457 11.6115 29.9962C10.8594 29.1818 10.913 28.2239 11.7811 27.5457C12.6172 26.8936 13.4895 26.285 14.3662 25.688C14.9792 25.2707 15.5936 25.2953 16.1356 25.843C17.3224 27.0458 18.5034 28.2529 19.6873 29.4571C19.7685 29.5397 19.8569 29.615 20.0365 29.7817H20.038Z" fill="#0B1423"/>
<path d="M50.1807 19.6464C51.324 19.6464 52.4311 19.6391 53.5382 19.6478C55.493 19.6652 57.4479 19.6696 59.4013 19.7217C61.6039 19.7812 63.5862 21.1752 64.218 23.0489C64.9832 25.3152 64.1065 27.5584 62.0009 28.7221C61.8212 28.8221 61.6502 28.9365 61.3836 29.1017C61.6546 29.2611 61.8241 29.3843 62.0111 29.4669C64.9353 30.7421 65.4135 34.3054 63.8065 36.6356C62.8327 38.047 61.4343 38.8918 59.7563 38.9817C56.7248 39.144 53.6846 39.1353 50.6487 39.2005C50.2676 39.2092 50.0908 39.0831 50.0908 38.6571C50.1039 32.4288 50.101 26.2021 50.1039 19.9739C50.1039 19.9058 50.1328 19.8391 50.1763 19.6464H50.1807ZM54.1034 33.2722H54.099C54.099 33.8982 54.1106 34.5242 54.0947 35.1502C54.0845 35.5212 54.1642 35.7357 54.6047 35.7284C55.7597 35.7081 56.9175 35.7603 58.0724 35.7125C59.4404 35.656 60.4678 34.7286 60.5663 33.5519C60.6866 32.1303 60.0171 31.1087 58.5231 30.8885C57.203 30.6928 55.8408 30.7711 54.4961 30.7783C54.3642 30.7783 54.1367 31.1232 54.1222 31.3217C54.0744 31.968 54.1048 32.6201 54.1048 33.2708L54.1034 33.2722ZM54.1208 27.4367C55.6626 27.4367 57.1073 27.5048 58.5419 27.415C59.6259 27.3469 60.3663 26.4354 60.4156 25.3761C60.4721 24.1821 60.0446 23.4546 58.8028 23.2967C57.3595 23.1126 55.8799 23.1996 54.4164 23.1996C54.3178 23.1996 54.1352 23.4575 54.1338 23.5981C54.1121 24.8443 54.1208 26.092 54.1208 27.4367Z" fill="#0B1423"/>
<path d="M91.6233 33.1656C92.3478 36.1942 95.8213 36.6478 97.6356 35.6117C99.0455 34.806 99.1412 32.983 97.7747 32.1092C97.1791 31.7281 96.4604 31.5354 95.7865 31.2861C94.1882 30.6949 92.5246 30.2442 90.9987 29.5067C89.0627 28.572 88.1643 26.8722 88.2933 24.713C88.4193 22.635 89.3279 20.9642 91.2827 20.1165C94.2838 18.8152 97.3066 18.8471 100.15 20.5628C101.858 21.5946 102.46 23.3074 102.535 25.2709C101.313 25.3927 100.147 25.5231 98.9774 25.5999C98.8644 25.6071 98.6673 25.2941 98.6166 25.1014C98.3021 23.9102 97.5269 23.1335 96.3647 22.893C95.1779 22.6466 93.9491 22.5843 92.9608 23.5494C92.2044 24.2885 92.1261 25.226 92.9666 25.8709C93.6897 26.4259 94.5852 26.7867 95.4489 27.1214C96.856 27.6678 98.3442 28.0228 99.7179 28.6386C102.687 29.9689 103.336 32.6744 102.641 35.3422C102.031 37.6868 100.248 38.8606 98.0399 39.346C96.0749 39.7778 94.065 39.7749 92.1203 39.0953C89.738 38.2621 88.2353 36.655 87.8614 34.109C87.8368 33.9394 88.0397 33.5859 88.1715 33.567C89.3091 33.4033 90.4553 33.296 91.6189 33.17L91.6233 33.1656Z" fill="#0B1423"/>
<path d="M82.5447 26.1244V19.7354H86.434C86.434 20.7526 86.434 21.7583 86.434 22.764C86.434 28.0024 86.4224 33.2409 86.4485 38.4794C86.4514 39.0793 86.2515 39.2344 85.708 39.2112C84.9849 39.1822 84.2575 39.1735 83.5359 39.2155C82.8982 39.2532 82.5722 39.0619 82.6707 38.3722C82.6968 38.1939 82.6548 38.007 82.6389 37.7389C82.4737 37.8403 82.3563 37.878 82.2896 37.9592C80.4725 40.1574 76.4889 39.9633 74.3979 38.4127C72.4923 36.9999 71.6446 35.0813 71.5315 32.7613C71.433 30.7383 71.7417 28.8328 72.9169 27.1228C75.0485 24.0232 79.5132 23.4204 82.2157 25.9795C82.2621 26.0244 82.3389 26.036 82.5432 26.1244H82.5447ZM82.6765 32.0498C82.5055 31.3339 82.4142 30.5847 82.1447 29.9065C81.5636 28.4444 80.3725 27.7836 78.6915 27.8619C77.3888 27.9227 76.1107 28.8603 75.7861 30.1833C75.5774 31.0325 75.5064 31.9483 75.5615 32.8221C75.7368 35.5841 78.6582 37.0173 80.9738 35.5073C82.2056 34.7045 82.6041 33.4887 82.678 32.0483L82.6765 32.0498Z" fill="#0B1423"/>
<path d="M123.338 37.9576C123.253 38.7942 122.807 39.211 121.999 39.2081C121.42 39.2067 120.837 39.1632 120.262 39.2081C119.643 39.256 119.494 39.0111 119.497 38.4213C119.517 33.2524 119.51 28.0849 119.51 22.916C119.51 22.0465 119.527 21.177 119.501 20.3076C119.486 19.8497 119.623 19.6526 120.111 19.6656C121.146 19.6932 122.18 19.6743 123.302 19.6743V26.0837C123.49 25.9996 123.587 25.9851 123.64 25.9286C125.932 23.4652 130.579 24.097 132.628 26.588C134.472 28.8297 134.838 31.4163 134.201 34.1537C133.331 37.8837 130.52 39.8747 126.693 39.5269C125.449 39.4139 124.348 38.8748 123.338 37.9561V37.9576ZM127.038 27.8574C125.212 27.8298 124.013 28.6848 123.532 30.3658C123.227 31.4352 123.208 32.5162 123.528 33.5798C123.961 35.0202 125.005 35.8144 126.442 36.0679C127.929 36.3302 129.29 35.6781 130.02 34.4174C130.7 33.2451 130.737 31.9714 130.44 30.7019C130.001 28.8254 128.827 27.8849 127.038 27.8588V27.8574Z" fill="#0B1423"/>
<path d="M104.364 25.1703C105.574 25.1703 106.772 25.1515 107.969 25.1993C108.087 25.2036 108.278 25.6181 108.281 25.8441C108.304 28.3047 108.308 30.7667 108.289 33.2273C108.281 34.2851 108.518 35.1908 109.53 35.7197C110.635 36.2994 111.743 36.2182 112.755 35.5444C113.509 35.043 113.766 34.2243 113.766 33.3389C113.768 30.8783 113.783 28.4163 113.744 25.9557C113.734 25.3036 113.934 25.1297 114.567 25.1631C115.594 25.2181 116.627 25.1776 117.695 25.1776C117.713 25.4775 117.735 25.6876 117.735 25.8992C117.735 30.074 117.724 34.2474 117.746 38.4223C117.749 39.0106 117.597 39.2541 116.982 39.2135C116.31 39.1686 115.629 39.157 114.957 39.2077C114.294 39.2584 114.006 39.041 114.113 38.3643C114.135 38.231 114.1 38.089 114.087 37.8629C113.913 37.9716 113.786 38.0223 113.697 38.1122C110.904 40.9234 105.771 39.7105 104.571 35.9414C104.42 35.4661 104.325 34.9503 104.322 34.4518C104.297 31.484 104.307 28.5163 104.309 25.5485C104.309 25.4572 104.333 25.3659 104.362 25.1689L104.364 25.1703Z" fill="#0B1423"/>
<path d="M135.458 34.7808C136.509 34.6996 137.507 34.6025 138.509 34.5663C138.652 34.5605 138.875 34.8213 138.945 35.0025C139.558 36.6037 141.597 37.3529 143.086 36.4849C143.623 36.1719 143.882 35.6951 143.865 35.0372C143.849 34.4373 143.485 34.1504 143.023 33.9881C141.798 33.5577 140.553 33.1868 139.326 32.768C138.873 32.6129 138.432 32.4086 138.005 32.1912C134.988 30.6653 135.287 26.7702 137.836 25.3051C140.264 23.9097 142.789 23.9705 145.207 25.3298C146.627 26.1282 147.289 27.473 147.298 29.1844C146.211 29.2655 145.169 29.3438 144.144 29.4206C143.536 27.5512 142.652 26.973 140.866 27.2252C140.106 27.3324 139.594 27.7773 139.501 28.412C139.406 29.0655 139.732 29.6626 140.462 29.9335C141.408 30.2857 142.397 30.5219 143.346 30.8668C144.154 31.1609 144.957 31.4884 145.72 31.8855C147.784 32.9607 147.651 36.2849 146.461 37.6181C145.364 38.8498 144.005 39.4961 142.403 39.528C141.31 39.5497 140.164 39.5121 139.128 39.2063C136.828 38.5267 135.912 37.3442 135.456 34.7837L135.458 34.7808Z" fill="#0B1423"/>
<path d="M66.2526 25.2041H69.8884C69.9044 25.4591 69.9319 25.6895 69.9319 25.9214C69.9348 30.0731 69.9232 34.2262 69.9493 38.3778C69.9536 39.0009 69.7971 39.2502 69.145 39.211C68.3277 39.1618 67.5018 39.227 66.6845 39.1734C66.4946 39.1603 66.1642 38.8691 66.1642 38.7039C66.144 34.2624 66.157 29.8224 66.1671 25.3809C66.1671 25.3389 66.2063 25.2968 66.2526 25.2041Z" fill="#0B1423"/>
<path d="M68.1146 23.349C66.9538 23.336 66.0815 22.5187 66.0989 21.4609C66.1163 20.332 67.1292 19.3351 68.232 19.3568C69.2811 19.3785 70.2969 20.3712 70.3013 21.3812C70.3056 22.5622 69.4159 23.3635 68.116 23.3476L68.1146 23.349Z" fill="#0B1423"/>
</g>
</svg>
