<svg width="314" height="311" viewBox="0 0 314 311" fill="none" xmlns="http://www.w3.org/2000/svg">
<g filter="url(#filter0_f_117_2496)">
<ellipse cx="156.833" cy="155.5" rx="56.5" ry="55.5" fill="#1350E5" fill-opacity="0.1"/>
</g>
<ellipse cx="138.333" cy="170.5" rx="87" ry="29.5" fill="url(#paint0_linear_117_2496)" fill-opacity="0.05"/>
<path d="M134.458 159.291H122.833C117.15 159.291 112.5 163.941 112.5 169.625V170.916H107.333C105.215 170.916 103.458 172.673 103.458 174.791C103.458 176.91 105.215 178.666 107.333 178.666H169.333C171.452 178.666 173.208 176.91 173.208 174.791C173.208 172.673 171.452 170.916 169.333 170.916H164.167V169.625C164.167 163.941 159.517 159.291 153.833 159.291H142.208V147.46C140.917 147.615 139.625 147.666 138.333 147.666C137.042 147.666 135.75 147.615 134.458 147.46V159.291Z" fill="#7D7F82"/>
<path d="M171.815 125.14C175.225 123.848 178.221 121.73 180.598 119.353C185.403 114.032 188.555 107.677 188.555 100.237C188.555 92.7966 182.716 86.9583 175.276 86.9583H172.383C169.025 80.0866 161.998 75.3333 153.835 75.3333H122.835C114.671 75.3333 107.645 80.0866 104.286 86.9583H101.393C93.9531 86.9583 88.1147 92.7966 88.1147 100.237C88.1147 107.677 91.2664 114.032 96.0714 119.353C98.4481 121.73 101.445 123.848 104.855 125.14C110.228 138.367 123.145 147.667 138.335 147.667C153.525 147.667 166.441 138.367 171.815 125.14ZM153.008 108.658L149.805 112.585C149.288 113.153 148.926 114.29 148.978 115.065L149.288 120.128C149.495 123.228 147.273 124.83 144.38 123.693L139.678 121.833C138.955 121.575 137.715 121.575 136.991 121.833L132.29 123.693C129.396 124.83 127.175 123.228 127.381 120.128L127.691 115.065C127.743 114.29 127.381 113.153 126.865 112.585L123.661 108.658C121.646 106.282 122.525 103.647 125.521 102.872L130.43 101.632C131.205 101.425 132.135 100.702 132.548 100.03L135.286 95.7933C136.991 93.1583 139.678 93.1583 141.383 95.7933L144.121 100.03C144.535 100.702 145.465 101.425 146.24 101.632L151.148 102.872C154.145 103.647 155.023 106.282 153.008 108.658Z" fill="#1350E5"/>
<defs>
<filter id="filter0_f_117_2496" x="0.333313" y="0" width="313" height="311" filterUnits="userSpaceOnUse" color-interpolation-filters="sRGB">
<feFlood flood-opacity="0" result="BackgroundImageFix"/>
<feBlend mode="normal" in="SourceGraphic" in2="BackgroundImageFix" result="shape"/>
<feGaussianBlur stdDeviation="50" result="effect1_foregroundBlur_117_2496"/>
</filter>
<linearGradient id="paint0_linear_117_2496" x1="138.333" y1="141" x2="138.333" y2="200" gradientUnits="userSpaceOnUse">
<stop stop-color="white"/>
<stop offset="1" stop-color="white" stop-opacity="0.5"/>
</linearGradient>
</defs>
</svg>
