<svg width="125" height="124" viewBox="0 0 125 124" fill="none" xmlns="http://www.w3.org/2000/svg">
<path d="M58.4583 94.2916H46.8333C41.15 94.2916 36.5 98.9416 36.5 104.625V105.917H31.3333C29.215 105.917 27.4583 107.673 27.4583 109.792C27.4583 111.91 29.215 113.667 31.3333 113.667H93.3333C95.4516 113.667 97.2083 111.91 97.2083 109.792C97.2083 107.673 95.4516 105.917 93.3333 105.917H88.1666V104.625C88.1666 98.9416 83.5166 94.2916 77.8333 94.2916H66.2083V82.46C64.9166 82.615 63.625 82.6666 62.3333 82.6666C61.0416 82.6666 59.75 82.615 58.4583 82.46V94.2916Z" fill="#9A9EA6" fill-opacity="0.6"/>
<path d="M95.8135 60.1397C99.2235 58.848 102.22 56.7297 104.597 54.353C109.402 49.0313 112.553 42.6763 112.553 35.2363C112.553 27.7963 106.715 21.958 99.2751 21.958H96.3818C93.0235 15.0863 85.9968 10.333 77.8335 10.333H46.8335C38.6701 10.333 31.6435 15.0863 28.2851 21.958H25.3918C17.9518 21.958 12.1135 27.7963 12.1135 35.2363C12.1135 42.6763 15.2651 49.0313 20.0701 54.353C22.4468 56.7297 25.4435 58.848 28.8535 60.1397C34.2268 73.3663 47.1435 82.6663 62.3335 82.6663C77.5235 82.6663 90.4401 73.3663 95.8135 60.1397ZM77.0068 43.658L73.8035 47.5847C73.2868 48.153 72.9251 49.2897 72.9768 50.0647L73.2868 55.128C73.4935 58.228 71.2718 59.8297 68.3785 58.693L63.6768 56.833C62.9535 56.5747 61.7135 56.5747 60.9901 56.833L56.2885 58.693C53.3951 59.8297 51.1735 58.228 51.3801 55.128L51.6901 50.0647C51.7418 49.2897 51.3801 48.153 50.8635 47.5847L47.6601 43.658C45.6451 41.2813 46.5235 38.6463 49.5201 37.8713L54.4285 36.6313C55.2035 36.4247 56.1335 35.7013 56.5468 35.0297L59.2851 30.793C60.9901 28.158 63.6768 28.158 65.3818 30.793L68.1201 35.0297C68.5335 35.7013 69.4635 36.4247 70.2385 36.6313L75.1468 37.8713C78.1435 38.6463 79.0218 41.2813 77.0068 43.658Z" fill="#1350E5"/>
</svg>
