<svg width="118" height="118" viewBox="0 0 118 118" fill="none" xmlns="http://www.w3.org/2000/svg">
<g filter="url(#filter0_dd_117_2917)">
<rect x="27.0925" y="5.12012" width="62.9538" height="62.9538" rx="31.4769" fill="#1350E5" fill-opacity="0.1" shape-rendering="crispEdges"/>
<path fill-rule="evenodd" clip-rule="evenodd" d="M71.7074 24.728C73.1577 25.1176 74.3049 26.2649 74.6946 27.7152C75.4089 30.3561 75.4306 35.8326 75.4306 35.8326C75.4306 35.8326 75.4306 41.3309 74.7162 43.9501C74.3266 45.4004 73.1793 46.5477 71.729 46.9373C69.1098 47.6516 58.5679 47.6516 58.5679 47.6516C58.5679 47.6516 48.0261 47.6516 45.4069 46.9373C43.9566 46.5477 42.8093 45.4004 42.4197 43.9501C41.7053 41.3092 41.7053 35.8326 41.7053 35.8326C41.7053 35.8326 41.7053 30.3561 42.398 27.7369C42.7876 26.2866 43.9349 25.1393 45.3852 24.7497C48.0045 24.0353 58.5463 24.0137 58.5463 24.0137C58.5463 24.0137 69.0881 24.0137 71.7074 24.728ZM63.9363 35.8327L55.1911 40.8979V30.7674L63.9363 35.8327Z" fill="#1350E5"/>
</g>
<defs>
<filter id="filter0_dd_117_2917" x="0.112345" y="0.623421" width="116.914" height="116.914" filterUnits="userSpaceOnUse" color-interpolation-filters="sRGB">
<feFlood flood-opacity="0" result="BackgroundImageFix"/>
<feColorMatrix in="SourceAlpha" type="matrix" values="0 0 0 0 0 0 0 0 0 0 0 0 0 0 0 0 0 0 127 0" result="hardAlpha"/>
<feMorphology radius="8.99339" operator="erode" in="SourceAlpha" result="effect1_dropShadow_117_2917"/>
<feOffset dy="8.99339"/>
<feGaussianBlur stdDeviation="6.74505"/>
<feComposite in2="hardAlpha" operator="out"/>
<feColorMatrix type="matrix" values="0 0 0 0 0 0 0 0 0 0 0 0 0 0 0 0 0 0 0.1 0"/>
<feBlend mode="normal" in2="BackgroundImageFix" result="effect1_dropShadow_117_2917"/>
<feColorMatrix in="SourceAlpha" type="matrix" values="0 0 0 0 0 0 0 0 0 0 0 0 0 0 0 0 0 0 127 0" result="hardAlpha"/>
<feMorphology radius="6.74505" operator="erode" in="SourceAlpha" result="effect2_dropShadow_117_2917"/>
<feOffset dy="22.4835"/>
<feGaussianBlur stdDeviation="16.8626"/>
<feComposite in2="hardAlpha" operator="out"/>
<feColorMatrix type="matrix" values="0 0 0 0 0 0 0 0 0 0 0 0 0 0 0 0 0 0 0.1 0"/>
<feBlend mode="normal" in2="effect1_dropShadow_117_2917" result="effect2_dropShadow_117_2917"/>
<feBlend mode="normal" in="SourceGraphic" in2="effect2_dropShadow_117_2917" result="shape"/>
</filter>
</defs>
</svg>
